<?xml version="1.0" encoding="utf-8"?>
<!-- Generator: Adobe Illustrator 28.1.0, SVG Export Plug-In . SVG Version: 6.00 Build 0)  -->
<svg version="1.1" id="Calque_1" xmlns="http://www.w3.org/2000/svg" xmlns:xlink="http://www.w3.org/1999/xlink" x="0px" y="0px"
	 viewBox="0 0 293.7 80" style="enable-background:new 0 0 293.7 80;" xml:space="preserve">
<style type="text/css">
	.st0{fill:#FFFFFF;}
	.st1{fill:#E83D29;}
	.st2{fill:#ED4A38;}
	.st3{fill:#EB4F47;}
	.st4{fill:#DB3636;}
	.st5{fill:#FF6969;}
	.st6{fill:#DEDFE0;}
</style>
<g>
	<g>
		<rect x="79.2" y="49.8" class="st0" width="1.2" height="9.2"/>
		<polygon class="st0" points="83.5,59 84.7,59 84.7,55.1 88.4,55.1 88.4,53.9 84.7,53.9 84.7,51 88.9,51 88.9,49.8 83.5,49.8 		"/>
		<polygon class="st0" points="103.2,56.4 100.6,49.8 99.4,49.8 100.4,52.4 98.8,56.5 96.4,49.8 94.9,49.8 98.6,59.4 101,53.9 
			103.1,59.4 106.7,49.8 105.4,49.8 		"/>
		<polygon class="st0" points="110.2,55 114.4,55 114.4,53.8 110.2,53.8 110.2,51 114.9,51 114.9,49.8 108.9,49.8 108.9,59 
			115.1,59 115.1,57.8 110.2,57.8 		"/>
		<path class="st0" d="M128.4,51.3c-0.4-0.5-0.9-0.8-1.5-1.1s-1.4-0.4-2.3-0.4H122V59h3c0.6,0,1.2-0.1,1.7-0.3s1-0.5,1.4-0.9
			s0.7-0.9,1-1.4c0.2-0.6,0.4-1.2,0.4-1.9c0-0.6-0.1-1.1-0.3-1.7C129.1,52.3,128.8,51.8,128.4,51.3z M128,55.9
			c-0.2,0.4-0.4,0.8-0.7,1.1c-0.3,0.3-0.7,0.5-1.1,0.7s-0.9,0.2-1.4,0.2h-1.5V51h1.6c0.4,0,0.9,0.1,1.3,0.2c0.4,0.1,0.8,0.4,1.1,0.7
			c0.3,0.3,0.6,0.6,0.8,1.1c0.2,0.4,0.3,0.9,0.3,1.5C128.2,55,128.2,55.4,128,55.9z"/>
		<path class="st0" d="M139.4,51.1c-0.4-0.4-0.9-0.8-1.5-1s-1.2-0.4-1.8-0.4c-0.7,0-1.3,0.1-1.8,0.4c-0.6,0.2-1.1,0.6-1.5,1
			s-0.8,0.9-1,1.5s-0.4,1.2-0.4,1.8c0,0.7,0.1,1.3,0.4,1.8c0.2,0.6,0.6,1.1,1,1.5s0.9,0.8,1.5,1s1.2,0.4,1.8,0.4s1.2-0.1,1.8-0.4
			c0.6-0.2,1.1-0.6,1.5-1s0.8-0.9,1-1.5s0.4-1.2,0.4-1.8s-0.1-1.2-0.4-1.8C140.2,52,139.8,51.5,139.4,51.1z M139.2,55.8
			c-0.2,0.4-0.4,0.8-0.7,1.1s-0.7,0.6-1.1,0.7c-0.4,0.2-0.9,0.3-1.3,0.3c-0.5,0-0.9-0.1-1.3-0.3c-0.4-0.2-0.8-0.4-1.1-0.8
			c-0.3-0.3-0.6-0.7-0.7-1.1c-0.2-0.4-0.3-0.9-0.3-1.4s0.1-0.9,0.3-1.4c0.2-0.4,0.4-0.8,0.7-1.1s0.7-0.6,1.1-0.8
			c0.4-0.2,0.9-0.3,1.4-0.3s0.9,0.1,1.3,0.3c0.4,0.2,0.8,0.4,1.1,0.8c0.3,0.3,0.6,0.7,0.7,1.1c0.2,0.4,0.3,0.9,0.3,1.4
			C139.5,54.9,139.4,55.4,139.2,55.8z"/>
		<polygon class="st0" points="150,56.5 143.3,49.5 143.2,49.5 143.2,59 144.5,59 144.4,52.4 151.2,59.3 151.2,59.3 151.2,49.8 
			150,49.8 		"/>
		<path class="st0" d="M153.8,49.9c0.1,0.3,0,0.6-0.1,0.9c-0.1,0.3-0.2,0.5-0.4,0.7l0.6,0.3c0.2-0.1,0.4-0.3,0.5-0.5
			s0.2-0.5,0.3-0.7c0.1-0.3,0.1-0.5,0-0.7H153.8z"/>
		<polygon class="st0" points="162.4,49.8 156.3,49.8 156.3,51 158.7,51 158.7,59 159.9,59 159.9,51 162.4,51 		"/>
		<path class="st0" d="M162.5,59.2c-0.2,0.4-0.3,0.9-0.5,1.3h1c0.2-0.5,0.4-0.9,0.6-1.3c0.2-0.4,0.4-0.9,0.6-1.3h-1.1
			C162.8,58.3,162.6,58.8,162.5,59.2z"/>
		<polygon class="st0" points="178,56.4 175.4,49.8 174.2,49.8 175.2,52.4 173.6,56.5 171.2,49.8 169.8,49.8 173.5,59.4 175.8,53.9 
			178,59.4 181.6,49.8 180.3,49.8 		"/>
		<polygon class="st0" points="189.8,53.8 185,53.8 185,49.8 183.8,49.8 183.8,59 185,59 185,55 189.8,55 189.8,59 191.1,59 
			191.1,49.8 189.8,49.8 		"/>
		<path class="st0" d="M201.5,51.1c-0.4-0.4-0.9-0.8-1.5-1s-1.2-0.4-1.8-0.4c-0.7,0-1.3,0.1-1.8,0.4c-0.6,0.2-1.1,0.6-1.5,1
			s-0.8,0.9-1,1.5s-0.4,1.2-0.4,1.8c0,0.7,0.1,1.3,0.4,1.8c0.2,0.6,0.6,1.1,1,1.5s0.9,0.8,1.5,1s1.2,0.4,1.8,0.4s1.3-0.1,1.8-0.4
			c0.6-0.2,1.1-0.6,1.5-1s0.8-0.9,1-1.5s0.4-1.2,0.4-1.8s-0.1-1.2-0.4-1.8C202.3,52,202,51.5,201.5,51.1z M201.4,55.8
			c-0.2,0.4-0.4,0.8-0.7,1.1s-0.7,0.6-1.1,0.7c-0.4,0.2-0.9,0.3-1.3,0.3c-0.5,0-0.9-0.1-1.3-0.3c-0.4-0.2-0.8-0.4-1.1-0.8
			c-0.3-0.3-0.6-0.7-0.7-1.1c-0.2-0.4-0.3-0.9-0.3-1.4s0.1-0.9,0.3-1.4c0.2-0.4,0.4-0.8,0.7-1.1s0.7-0.6,1.1-0.8
			c0.4-0.2,0.9-0.3,1.4-0.3s0.9,0.1,1.3,0.3c0.4,0.2,0.8,0.4,1.1,0.8c0.3,0.3,0.6,0.7,0.7,1.1s0.3,0.9,0.3,1.4
			C201.6,54.9,201.5,55.4,201.4,55.8z"/>
		<polygon class="st0" points="217.2,56.4 214.6,49.8 213.4,49.8 214.4,52.4 212.8,56.5 210.4,49.8 208.9,49.8 212.6,59.4 215,53.9 
			217.1,59.4 220.7,49.8 219.4,49.8 		"/>
		<rect x="222.9" y="49.8" class="st0" width="1.2" height="9.2"/>
		<polygon class="st0" points="228.4,49.8 227.2,49.8 227.2,59 233.1,59 233.1,57.8 228.4,57.8 		"/>
		<polygon class="st0" points="236.7,49.8 235.5,49.8 235.5,59 241.4,59 241.4,57.8 236.7,57.8 		"/>
		<path class="st0" d="M251.1,49.8c-0.4-0.2-0.8-0.3-1.3-0.3c-0.4,0-0.8,0.1-1.1,0.2c-0.3,0.1-0.6,0.3-0.8,0.5s-0.4,0.4-0.5,0.6
			c-0.1,0.2-0.2,0.4-0.3,0.6l1,0.5c0.1-0.2,0.2-0.5,0.3-0.7s0.3-0.4,0.5-0.5s0.5-0.2,0.7-0.2s0.5,0.1,0.7,0.2
			c0.2,0.1,0.4,0.3,0.5,0.5s0.2,0.5,0.2,0.7c0,0.4-0.1,0.7-0.3,0.9s-0.4,0.5-0.7,0.7c-0.2,0.2-0.4,0.3-0.6,0.5
			c-0.2,0.2-0.3,0.4-0.4,0.6c-0.1,0.2-0.2,0.6-0.2,1v0.8h1.2v-0.5c0-0.3,0-0.6,0.1-0.8s0.2-0.4,0.4-0.5s0.3-0.3,0.5-0.5
			s0.4-0.4,0.6-0.6c0.2-0.2,0.3-0.4,0.5-0.7c0.1-0.3,0.2-0.6,0.2-1c0-0.5-0.1-1-0.3-1.3C251.8,50.3,251.5,50,251.1,49.8z"/>
		<path class="st0" d="M249.6,57.6c-0.2,0-0.4,0.1-0.6,0.2c-0.1,0.1-0.2,0.3-0.2,0.5s0.1,0.4,0.2,0.5c0.1,0.1,0.3,0.2,0.6,0.2
			c0.2,0,0.4-0.1,0.5-0.2c0.1-0.1,0.2-0.3,0.2-0.5s-0.1-0.3-0.2-0.5C250,57.6,249.8,57.6,249.6,57.6z"/>
		<polygon class="st0" points="99.3,43.7 102.4,43.7 102.4,19.7 102.3,19.7 90.7,35.9 79.3,19.7 79.3,19.7 79.3,43.7 82.3,43.7 
			82.3,29 90.7,40.7 90.7,40.7 99.3,28.6 		"/>
		<path class="st0" d="M119.4,19.5l-10.1,24.2h3.1l2.5-6.1h8.9l2.4,6.1h3.6l-10.2-24.2H119.4z M116,34.9l3.5-8.5l3.3,8.5H116z"/>
		<polygon class="st0" points="154.3,43.7 144.1,30.4 153.7,20.4 149.7,20.4 140.2,30.4 139.8,30.9 139.9,29.8 139.9,20.4 
			136.7,20.4 136.7,43.7 139.9,43.7 139.9,34.3 141.9,32.4 150.3,43.7 		"/>
		<path class="st0" d="M177.1,40c0.8-1.3,1.2-2.7,1.2-4.4V20.4h-3.1v15c0,1.1-0.2,2-0.7,2.8s-1.2,1.5-2,1.9
			c-0.9,0.5-1.8,0.7-2.9,0.7c-1,0-2-0.2-2.8-0.7s-1.5-1.1-2-1.9c-0.5-0.8-0.8-1.8-0.8-2.8v-15h-3.1v15.1c0,1.7,0.4,3.2,1.2,4.4
			c0.8,1.3,1.8,2.2,3.2,2.9c1.3,0.7,2.8,1,4.4,1c1.6,0,3.1-0.3,4.4-1C175.3,42.2,176.3,41.2,177.1,40z"/>
		<polygon class="st0" points="194.7,43.7 194.7,23.4 200.9,23.4 200.9,20.4 185.5,20.4 185.5,23.4 191.6,23.4 191.6,43.7 		"/>
		<path class="st0" d="M214.6,19.5l-10.1,24.2h3.1l2.5-6.1h8.9l2.4,6.1h3.6l-10.2-24.2H214.6z M211.2,34.9l3.5-8.5l3.3,8.5H211.2z"
			/>
		<polygon class="st0" points="252.1,44.4 252.2,44.4 252.2,20.4 249.1,20.4 249.1,37.3 232.1,19.7 231.9,19.7 231.9,43.7 235,43.7 
			235,27.1 		"/>
		<path class="st0" d="M282.8,27.5c-0.6-1.4-1.5-2.7-2.6-3.8c-1.1-1.1-2.4-2-3.8-2.6s-3-0.9-4.6-0.9c-1.7,0-3.2,0.3-4.6,0.9
			s-2.7,1.5-3.8,2.6c-1.1,1.1-1.9,2.4-2.6,3.8c-0.6,1.4-0.9,3-0.9,4.6c0,1.7,0.3,3.3,0.9,4.7s1.5,2.7,2.6,3.8s2.4,1.9,3.8,2.5
			s3,0.9,4.6,0.9s3.2-0.3,4.6-0.9c1.4-0.6,2.7-1.5,3.8-2.5c1.1-1.1,1.9-2.3,2.6-3.8c0.6-1.4,0.9-3,0.9-4.6
			C283.7,30.5,283.4,28.9,282.8,27.5z M279.8,35.5c-0.5,1.1-1.1,2-1.8,2.8c-0.8,0.8-1.7,1.4-2.7,1.9s-2.2,0.7-3.4,0.7
			c-1.2,0-2.4-0.2-3.4-0.7s-2-1.1-2.8-1.9c-0.8-0.8-1.4-1.8-1.9-2.8c-0.4-1.1-0.7-2.2-0.7-3.5c0-1.2,0.2-2.3,0.6-3.4s1-2,1.8-2.8
			s1.7-1.5,2.8-1.9c1.1-0.5,2.2-0.7,3.4-0.7c1.2,0,2.3,0.2,3.4,0.7s2,1.1,2.8,1.9s1.4,1.8,1.8,2.8c0.4,1.1,0.7,2.2,0.7,3.5
			C280.5,33.3,280.3,34.5,279.8,35.5z"/>
	</g>
	<path class="st1" d="M45.1,27.8l3.3-3.3l0.1-0.1l0,0l3.3-3.3l3.3-3.3c-2.4-2.4-5.2-4.3-8.2-5.6l-3.7,8.6l0,0v0.1l-1.9,4.3
		C42.7,25.8,44,26.7,45.1,27.8L45.1,27.8z"/>
	<path class="st2" d="M30.2,20.7l1.7,4.4c1.4-0.6,2.9-0.9,4.5-0.9l0,0v-4.7v-3V10c-3.4,0-6.7,0.6-9.8,1.9l1.7,4.4v0.1l0,0L30.2,20.7
		L30.2,20.7z"/>
	<path class="st3" d="M17.7,55.1l3.4-3.4l0,0l6.7-6.6c-1.2-1.2-2.1-2.6-2.7-4.1l-4.5,1.8l0,0l-4.4,1.7l0,0l0,0l-4.4,1.7
		C13.2,49.5,15.2,52.5,17.7,55.1L17.7,55.1z"/>
	<path class="st1" d="M24.2,36.4c0-1.7,0.3-3.3,1-4.8c0.6-1.4,1.5-2.7,2.6-3.8l-3.4-3.4l0,0l-2.9-2.9l-0.3-0.3L21.1,21l-3.3-3.3
		c-2.4,2.4-4.3,5.2-5.6,8.3c-1.4,3.3-2.1,6.8-2.2,10.4l4.8,0.1h4.6L24.2,36.4L24.2,36.4L24.2,36.4z"/>
	<path class="st1" d="M51.7,21.2L45,27.8c1.2,1.2,2.1,2.6,2.7,4.1l8.7-3.5C55.4,25.7,53.8,23.3,51.7,21.2L51.7,21.2z"/>
	<path class="st4" d="M36.4,24.2L36.4,24.2c1.7,0,3.3,0.3,4.8,1l3.7-8.6c-2.7-1.2-5.6-1.8-8.5-1.8l0,0V24.2L36.4,24.2z"/>
	<path class="st5" d="M31.9,25.1l-3.5-8.7c-2.7,1.1-5.2,2.7-7.3,4.8l3.3,3.3l0,0l0,0l3.3,3.3C29,26.6,30.4,25.7,31.9,25.1L31.9,25.1
		z"/>
	<path class="st3" d="M20.7,42.7L20.7,42.7l4.4-1.7c-0.6-1.4-0.9-2.9-0.9-4.5l0,0h-4.7h-4.7l0,0c0,2.8,0.5,5.4,1.5,8L20.7,42.7
		L20.7,42.7z"/>
	<path class="st4" d="M49.7,48.3L49.7,48.3l1.7-1.7c-1.3-1.3-2.7-2.2-4.3-2.9c-1.7-0.7-3.5-1.1-5.4-1.1l0,0c-1.8,0-3.5,0.3-5.1,1
		l0.9,2.3V46l0,0l0.9,2.3l0.9,2.3c0.7-0.3,1.5-0.4,2.3-0.4l0,0c0.9,0,1.7,0.2,2.5,0.5s1.4,0.8,2,1.4L48,50l0.3-0.3L49.7,48.3
		L49.7,48.3L49.7,48.3z"/>
	<path class="st1" d="M37.2,51.8L35.5,50l0,0l0,0l0,0l0,0l-1.7-1.7L32,46.5c-1.2,1.2-2.2,2.7-2.9,4.3l4.5,1.9l0,0h0.1l2.2,1
		C36.2,53,36.7,52.4,37.2,51.8L37.2,51.8z"/>
	<path class="st3" d="M51.4,66l-1.8-1.8l-3.4-3.5c-0.6,0.6-1.3,1.1-2.1,1.4l0.9,2.3l0,0l0.9,2.3l0.9,2.3
		C48.5,68.3,50.1,67.3,51.4,66L51.4,66z"/>
	<path class="st1" d="M41.7,62.6c-0.9,0-1.7-0.2-2.5-0.5c-0.7-0.3-1.4-0.8-2-1.4l-1.8,1.8l0,0L33.9,64l-0.2,0.2l0,0L32,66
		c1.2,1.2,2.7,2.2,4.3,2.9c1.7,0.7,3.5,1.1,5.4,1.1v-2.5v-2.4V62.6L41.7,62.6L41.7,62.6z"/>
	<path class="st4" d="M52,60.7l-2.2-1l-2.2-1c-0.3,0.7-0.8,1.4-1.3,2l1.7,1.7l0,0l0,0l1.7,1.7C50.6,63.2,51.5,62,52,60.7L52,60.7z"
		/>
	<path class="st1" d="M33.8,48.3l3.4,3.5c0.6-0.6,1.3-1.1,2.1-1.4l-1.8-4.5C36.1,46.4,34.9,47.2,33.8,48.3L33.8,48.3z"/>
	<path class="st4" d="M35.4,56.3L35.4,56.3c0-0.9,0.2-1.7,0.5-2.5l-4.5-1.9c-0.6,1.4-0.9,2.9-0.9,4.4l0,0H35.4L35.4,56.3z"/>
	<path class="st5" d="M35.8,58.6l-4.5,1.8c0.6,1.4,1.4,2.7,2.5,3.8l1.7-1.7l1.7-1.7C36.6,60.1,36.1,59.4,35.8,58.6L35.8,58.6z"/>
	<path class="st3" d="M45,64.4L45,64.4l-0.9-2.3c-0.7,0.3-1.5,0.4-2.3,0.4l0,0v2.4v2.4l0,0c1.4,0,2.8-0.3,4.1-0.8L45,64.4L45,64.4
		L45,64.4z"/>
	<path class="st3" d="M54.5,51.2l-2.3,0.9l0,0L49.9,53l-2.3,0.9c0.3,0.7,0.4,1.5,0.4,2.3l0,0c0,0.9-0.2,1.7-0.5,2.5l4.5,1.9l0,0
		l2.3,1c0.7-1.7,1.1-3.5,1.1-5.4l0,0C55.4,54.5,55.1,52.8,54.5,51.2L54.5,51.2z"/>
	<path class="st1" d="M49.9,53l2.3-0.9c-0.6-1.4-1.4-2.7-2.5-3.8L48,50l-1.7,1.7c0.6,0.6,1.1,1.3,1.4,2.1L49.9,53L49.9,53L49.9,53
		L49.9,53z"/>
	<path class="st2" d="M33.5,59.5l2.3-0.9c-0.3-0.7-0.4-1.5-0.4-2.3l0,0H33h-1.6H28c0,1.8,0.3,3.5,1,5.1l2.3-0.9h0.1l0,0L33.5,59.5
		L33.5,59.5z"/>
	<path class="st4" d="M61,26.7l-4.4,1.7h-0.1l0,0l-4.4,1.7l0,0l0,0l-4.4,1.7c0.6,1.4,0.9,2.9,0.9,4.5l0,0c0,1.7-0.3,3.3-1,4.8
		c-0.2,0.5-0.4,0.9-0.7,1.3c0.4,0.2,2.4,1.1,4.4,2.7c0.5,0.4,0.9,0.7,1.3,1.1l-1.9,2c0.8,0.9,1.4,1.8,1.9,2.9h-0.1l0,0l0,0l2.4-1
		c0.5,1.3,0.8,2.6,0.9,3.9c2-2.2,3.6-4.7,4.7-7.4c1.4-3.3,2.1-6.7,2.1-10.3v-0.1C62.8,33,62.2,29.8,61,26.7L61,26.7z"/>
	<path class="st4" d="M28.3,51L28.3,51L28.3,51C28.3,50.9,28.3,50.9,28.3,51c0.5-1.5,1.6-3.1,2.1-3.9c-1-0.6-1.9-1.2-2.7-2l-3.3,3.3
		l-3.3,3.3c1.8,1.8,3.9,3.3,6.2,4.4v-0.3H28l1.6-3.8l0.1-0.2L28.3,51L28.3,51z"/>
	<path class="st0" d="M52,47l0.9-1.1V46c-1.2-1.1-2.5-2-3.9-2.7s-2.9-1.2-4.5-1.5s-3.1-0.3-4.7-0.1c-1.6,0.2-3.1,0.6-4.6,1.2
		l0.1-0.2l1.2,2.8l0.1,0.3l-0.2-0.1l0.1-0.1c0.4,0.9,0.7,1.8,1.1,2.7v0.1v-0.1v-0.1l0.1,0.1l0.9,2.2l-1-2.2l0,0v-0.1v0.1
		c-0.4-0.9-0.8-1.8-1.2-2.7v-0.1h0.1l0,0l-0.1,0.1L35,42.9v-0.2l0.1-0.1c1.5-0.6,3-1.1,4.6-1.3s3.2-0.1,4.8,0.1
		c1.6,0.3,3.1,0.8,4.5,1.6c1.4,0.7,2.7,1.7,3.9,2.8l0,0l0,0L52,47L52,47z"/>
	<path class="st0" d="M53,51c-0.4-0.8-0.9-1.6-1.5-2.3s-1.2-1.3-1.9-1.9h0.2c-0.6,0.7-1.3,1.5-1.9,2.2c-0.6,0.7-1.3,1.5-2,2.2V51
		c0.4,0.4,0.7,0.7,1,1.2c0.3,0.4,0.6,0.9,0.7,1.4c-0.5-0.9-1.2-1.7-1.9-2.3l-0.1-0.1l0.1-0.1c0.6-0.8,1.3-1.5,1.9-2.2
		c0.6-0.7,1.3-1.5,1.9-2.2l0.1-0.1l0.1,0.1c0.7,0.6,1.3,1.3,1.8,2.1C52.2,49.4,52.6,50.2,53,51L53,51z"/>
	<path class="st0" d="M50.5,52l-2.4,1v-0.1c0.7,1.7,0.7,3.6,0,5.3L48,58.1l4.8,2.1l-0.2,0.1l0,0l0.1-0.2l0.2,0.1l2.5,1.1l-0.2,0.1
		c0.8-1.8,1.2-3.7,1.2-5.6c0-1,0-1.9-0.2-2.9c-0.1-1-0.4-1.9-0.7-2.8c0.4,0.9,0.7,1.8,0.9,2.8s0.3,1.9,0.3,2.9s-0.1,2-0.3,2.9
		c-0.2,1-0.5,1.9-0.9,2.8l-0.1,0.2l-0.2-0.1l-2.5-1.1l0.2-0.1l0,0l-0.1,0.2l-0.2-0.1l-4.8-2.1l-0.1-0.1l0.1-0.1
		c0.4-0.8,0.6-1.7,0.6-2.5c0-0.9-0.1-1.8-0.4-2.6V53h0.1L50.5,52L50.5,52z"/>
	<path class="st6" d="M65.5,36.3c0.1,1.7,0,3.3-0.3,5s-0.7,3.3-1.2,4.9c-0.6,1.6-1.3,3.1-2.1,4.5c-0.2,0.4-0.4,0.7-0.7,1.1
		c-0.2,0.3-0.5,0.7-0.7,1l-0.8,1c-0.3,0.3-0.5,0.6-0.8,1l0.7-1l0.7-1l0.7-1.1c0.2-0.4,0.4-0.7,0.6-1.1c0.8-1.5,1.5-3,2-4.5
		c0.6-1.6,1-3.2,1.3-4.8C65.2,39.7,65.4,38,65.5,36.3L65.5,36.3z"/>
	<path class="st6" d="M35.7,26.3c0.4,0,0.7,0,1.1,0c0.4,0,0.7,0.1,1.1,0.1c0.4,0.1,0.7,0.2,1.1,0.2c0.3,0.1,0.7,0.2,1,0.3
		c1.3,0.5,2.6,1.3,3.6,2.4c1,1,1.8,2.3,2.4,3.6c0.1,0.3,0.2,0.7,0.3,1c0.1,0.4,0.2,0.7,0.2,1.1c0,0.4,0.1,0.7,0.1,1.1
		c0,0.4,0,0.7,0,1.1c-0.1-1.4-0.4-2.8-1-4.1s-1.4-2.5-2.4-3.5s-2.2-1.8-3.5-2.4C38.5,26.6,37.1,26.3,35.7,26.3L35.7,26.3z"/>
</g>
</svg>
