<svg xmlns="http://www.w3.org/2000/svg" width="19.964" height="20" viewBox="0 0 19.964 20">
  <path id="Icon_feather-phone-call" data-name="Icon feather-phone-call" d="M7.6,1.646a2.663,2.663,0,0,1,2.624,2.28v.007a11.06,11.06,0,0,0,.6,2.417,2.658,2.658,0,0,1-.6,2.795l0,0L9.5,9.876a13.969,13.969,0,0,0,4.4,4.4l.728-.728,0,0a2.65,2.65,0,0,1,2.8-.6,11.056,11.056,0,0,0,2.415.6h.007a2.65,2.65,0,0,1,2.28,2.68v2.759a2.651,2.651,0,0,1-2.651,2.658c-.079,0-.16,0-.239-.011h-.014a19.16,19.16,0,0,1-8.312-2.956A18.923,18.923,0,0,1,5.136,12.9,19.159,19.159,0,0,1,2.18,4.548V4.535A2.651,2.651,0,0,1,4.816,1.646Zm1.03,2.5A1.045,1.045,0,0,0,7.6,3.256H4.817A1.04,1.04,0,0,0,3.782,4.385a17.54,17.54,0,0,0,2.707,7.641l0,.006a17.3,17.3,0,0,0,5.289,5.289l.006,0a17.541,17.541,0,0,0,7.6,2.707,1.04,1.04,0,0,0,1.128-1.041V16.219q0-.01,0-.02a1.04,1.04,0,0,0-.892-1.056,12.673,12.673,0,0,1-2.765-.689,1.04,1.04,0,0,0-1.1.232L14.6,15.857a.805.805,0,0,1-.967.131A15.577,15.577,0,0,1,7.79,10.149a.805.805,0,0,1,.131-.967L9.091,8.011a1.043,1.043,0,0,0,.232-1.1A12.677,12.677,0,0,1,8.633,4.148Z" transform="translate(-2.168 -1.646)" fill="#186aff"/>
</svg>
