<svg xmlns="http://www.w3.org/2000/svg" width="17.246" height="17.246" viewBox="0 0 17.246 17.246">
  <g id="Instagram-Glyph-Color-Logo.wine" transform="translate(0 0)">
    <path id="Path_2978" data-name="Path 2978" d="M2.077-5.5A1.036,1.036,0,0,0,1.041-6.533,1.036,1.036,0,0,0,.005-5.5,1.036,1.036,0,0,0,1.041-4.463,1.035,1.035,0,0,0,2.077-5.5" transform="translate(12.185 9.518)" fill="#fff"/>
    <path id="Path_2979" data-name="Path 2979" d="M15.641-41.9a4.811,4.811,0,0,1-.3,1.6,2.664,2.664,0,0,1-.647.992,2.635,2.635,0,0,1-.99.643,4.8,4.8,0,0,1-1.6.3c-.909.04-1.178.049-3.483.049s-2.574-.009-3.483-.049a4.78,4.78,0,0,1-1.6-.3,2.637,2.637,0,0,1-.992-.643A2.628,2.628,0,0,1,1.9-40.3a4.754,4.754,0,0,1-.3-1.6c-.044-.909-.052-1.183-.052-3.483s.008-2.577.052-3.486a4.786,4.786,0,0,1,.3-1.6,2.624,2.624,0,0,1,.646-.99,2.668,2.668,0,0,1,.992-.645,4.78,4.78,0,0,1,1.6-.3c.909-.04,1.18-.05,3.483-.05s2.574.01,3.483.05a4.8,4.8,0,0,1,1.6.3,2.665,2.665,0,0,1,.99.645,2.659,2.659,0,0,1,.647.99,4.843,4.843,0,0,1,.3,1.6c.042.909.052,1.18.052,3.486s-.01,2.574-.052,3.483Zm1.553-7.039a6.267,6.267,0,0,0-.4-2.093,4.2,4.2,0,0,0-.993-1.529,4.24,4.24,0,0,0-1.527-.994,6.286,6.286,0,0,0-2.094-.4C11.259-54,10.965-54,8.622-54s-2.637.008-3.556.052a6.311,6.311,0,0,0-2.094.4,4.251,4.251,0,0,0-1.524.994,4.237,4.237,0,0,0-1,1.529,6.376,6.376,0,0,0-.4,2.093C.01-48.017,0-47.723,0-45.38s.01,2.635.05,3.554a6.4,6.4,0,0,0,.4,2.094,4.23,4.23,0,0,0,1,1.527,4.25,4.25,0,0,0,1.524,1,6.366,6.366,0,0,0,2.094.4c.919.042,1.215.052,3.556.052s2.637-.01,3.556-.052a6.34,6.34,0,0,0,2.094-.4,4.24,4.24,0,0,0,1.527-1,4.2,4.2,0,0,0,.993-1.527,6.293,6.293,0,0,0,.4-2.094c.042-.919.052-1.213.052-3.554s-.01-2.637-.052-3.556Z" transform="translate(0 54.004)" fill="#fff"/>
    <path id="Path_2980" data-name="Path 2980" d="M4.487-20.515a2.873,2.873,0,0,1-2.874-2.872,2.875,2.875,0,0,1,2.874-2.876,2.877,2.877,0,0,1,2.876,2.876A2.875,2.875,0,0,1,4.487-20.515Zm0-7.3A4.429,4.429,0,0,0,.06-23.387,4.427,4.427,0,0,0,4.487-18.96a4.428,4.428,0,0,0,4.429-4.427A4.431,4.431,0,0,0,4.487-27.817Z" transform="translate(4.136 32.011)" fill="#fff"/>
  </g>
</svg>
