<svg xmlns="http://www.w3.org/2000/svg" width="15.714" height="20" viewBox="0 0 15.714 20">
  <g id="location-information-svgrepo-com" transform="translate(-160 -64)">
    <path id="Path_47" data-name="Path 47" d="M256.714,896h10a.714.714,0,1,1,0,1.429h-10a.714.714,0,1,1,0-1.429Z" transform="translate(-93.857 -813.429)" fill="#186aff"/>
    <path id="Path_48" data-name="Path 48" d="M174.286,71.857a6.429,6.429,0,1,0-12.857,0c0,2.637,2.11,6.074,6.429,10.191C172.176,77.931,174.286,74.494,174.286,71.857ZM167.857,84Q160,76.858,160,71.857a7.857,7.857,0,0,1,15.714,0Q175.714,76.856,167.857,84Z" fill="#186aff"/>
    <path id="Path_49" data-name="Path 49" d="M355.571,261.714a2.143,2.143,0,1,0-2.143-2.143A2.143,2.143,0,0,0,355.571,261.714Zm0,1.429a3.571,3.571,0,1,1,3.571-3.571A3.571,3.571,0,0,1,355.571,263.143Z" transform="translate(-187.714 -187.714)" fill="#186aff"/>
  </g>
</svg>
