<svg xmlns="http://www.w3.org/2000/svg" width="24.509" height="20" viewBox="0 0 24.509 20">
  <g id="Icon_feather-mail" data-name="Icon feather-mail" transform="translate(1 1)">
    <path id="Path_1" data-name="Path 1" d="M5.238,5H23.271a3.241,3.241,0,0,1,3.238,3.238V21.762A3.241,3.241,0,0,1,23.271,25H5.238A3.241,3.241,0,0,1,2,21.762V8.238A3.241,3.241,0,0,1,5.238,5ZM23.271,23.033a1.272,1.272,0,0,0,1.271-1.271V8.238a1.272,1.272,0,0,0-1.271-1.271H5.238A1.272,1.272,0,0,0,3.967,8.238V21.762a1.272,1.272,0,0,0,1.271,1.271Z" transform="translate(-3 -6)" fill="#186aff"/>
    <path id="Path_2" data-name="Path 2" d="M14.254,18.022a.971.971,0,0,1-.564-.181L2.419,9.819a1.011,1.011,0,0,1-.242-1.393.973.973,0,0,1,1.37-.246L14.254,15.8,24.961,8.181a.973.973,0,0,1,1.37.246,1.011,1.011,0,0,1-.242,1.393L14.818,17.841A.971.971,0,0,1,14.254,18.022Z" transform="translate(-3 -6.708)" fill="#186aff"/>
  </g>
</svg>
