<svg xmlns="http://www.w3.org/2000/svg" width="20.154" height="16.378" viewBox="0 0 20.154 16.378">
  <path id="Icon_metro-twitter" data-name="Icon metro-twitter" d="M22.724,6.756a8.267,8.267,0,0,1-2.375.651A4.147,4.147,0,0,0,22.168,5.12a8.278,8.278,0,0,1-2.626,1A4.139,4.139,0,0,0,12.5,9.894a11.739,11.739,0,0,1-8.522-4.32,4.139,4.139,0,0,0,1.28,5.52,4.118,4.118,0,0,1-1.873-.517c0,.017,0,.035,0,.052A4.137,4.137,0,0,0,6.7,14.684a4.142,4.142,0,0,1-1.867.071,4.139,4.139,0,0,0,3.862,2.871A8.3,8.3,0,0,1,3.557,19.4a8.386,8.386,0,0,1-.986-.058A11.7,11.7,0,0,0,8.909,21.2,11.684,11.684,0,0,0,20.673,9.431q0-.269-.012-.535a8.4,8.4,0,0,0,2.063-2.14Z" transform="translate(-2.571 -4.817)" fill="#186aff"/>
</svg>
