<svg xmlns="http://www.w3.org/2000/svg" width="18.829" height="15.302" viewBox="0 0 18.829 15.302">
  <path id="Icon_metro-twitter" data-name="Icon metro-twitter" d="M21.4,6.629a7.724,7.724,0,0,1-2.219.608A3.875,3.875,0,0,0,20.88,5.1a7.734,7.734,0,0,1-2.453.937,3.867,3.867,0,0,0-6.583,3.523A10.967,10.967,0,0,1,3.882,5.524a3.867,3.867,0,0,0,1.2,5.158,3.847,3.847,0,0,1-1.75-.483c0,.016,0,.032,0,.049a3.866,3.866,0,0,0,3.1,3.788,3.869,3.869,0,0,1-1.745.066A3.867,3.867,0,0,0,8.29,16.784a7.751,7.751,0,0,1-4.8,1.654,7.835,7.835,0,0,1-.922-.054A10.934,10.934,0,0,0,8.492,20.12,10.916,10.916,0,0,0,19.484,9.128q0-.251-.011-.5a7.848,7.848,0,0,0,1.928-2Z" transform="translate(-2.571 -4.817)" fill="#fff"/>
</svg>
