<svg id="Instagram-Glyph-Color-Logo.wine" xmlns="http://www.w3.org/2000/svg" width="18.459" height="18.459" viewBox="0 0 18.459 18.459">
  <path id="Path_2978" data-name="Path 2978" d="M2.223-5.424A1.109,1.109,0,0,0,1.114-6.533,1.109,1.109,0,0,0,.005-5.424,1.108,1.108,0,0,0,1.114-4.318,1.108,1.108,0,0,0,2.223-5.424" transform="translate(13.042 9.728)" fill="#186aff"/>
  <path id="Path_2979" data-name="Path 2979" d="M16.741-41.045a5.149,5.149,0,0,1-.317,1.714,2.851,2.851,0,0,1-.693,1.061,2.82,2.82,0,0,1-1.06.689,5.133,5.133,0,0,1-1.715.321c-.973.043-1.261.052-3.728.052s-2.756-.009-3.728-.052a5.116,5.116,0,0,1-1.713-.321,2.823,2.823,0,0,1-1.061-.689,2.813,2.813,0,0,1-.691-1.061,5.089,5.089,0,0,1-.317-1.714c-.047-.973-.056-1.266-.056-3.728s.009-2.758.056-3.731a5.122,5.122,0,0,1,.317-1.716,2.809,2.809,0,0,1,.691-1.059,2.855,2.855,0,0,1,1.061-.691A5.117,5.117,0,0,1,5.5-52.288c.973-.043,1.264-.054,3.728-.054s2.756.011,3.728.054a5.134,5.134,0,0,1,1.715.319,2.852,2.852,0,0,1,1.06.691,2.846,2.846,0,0,1,.693,1.059,5.183,5.183,0,0,1,.317,1.716c.045.973.056,1.264.056,3.731S16.787-42.018,16.741-41.045ZM18.4-48.58a6.708,6.708,0,0,0-.431-2.241,4.5,4.5,0,0,0-1.063-1.636,4.538,4.538,0,0,0-1.634-1.064,6.728,6.728,0,0,0-2.241-.428C12.051-54,11.736-54,9.228-54s-2.822.009-3.806.056a6.755,6.755,0,0,0-2.241.428A4.55,4.55,0,0,0,1.55-52.456,4.535,4.535,0,0,0,.484-50.82,6.825,6.825,0,0,0,.054-48.58C.011-47.6,0-47.281,0-44.773s.011,2.82.054,3.8a6.853,6.853,0,0,0,.431,2.241A4.527,4.527,0,0,0,1.55-37.095a4.549,4.549,0,0,0,1.632,1.066,6.813,6.813,0,0,0,2.241.428c.984.045,1.3.056,3.806.056s2.822-.011,3.806-.056a6.786,6.786,0,0,0,2.241-.428,4.538,4.538,0,0,0,1.634-1.066,4.49,4.49,0,0,0,1.063-1.634A6.736,6.736,0,0,0,18.4-40.97c.045-.984.056-1.3.056-3.8S18.448-47.6,18.4-48.58Z" transform="translate(0 54.004)" fill="#186aff"/>
  <path id="Path_2980" data-name="Path 2980" d="M4.8-20a3.075,3.075,0,0,1-3.076-3.074A3.077,3.077,0,0,1,4.8-26.153a3.079,3.079,0,0,1,3.078,3.078A3.077,3.077,0,0,1,4.8-20Zm0-7.816A4.74,4.74,0,0,0,.06-23.075,4.738,4.738,0,0,0,4.8-18.337a4.74,4.74,0,0,0,4.74-4.738A4.742,4.742,0,0,0,4.8-27.817Z" transform="translate(4.431 32.306)" fill="#186aff"/>
</svg>
