<svg xmlns="http://www.w3.org/2000/svg" xmlns:xlink="http://www.w3.org/1999/xlink" width="17.276" height="17.246" viewBox="0 0 17.276 17.246">
  <defs>
    <clipPath id="clip-path">
      <rect id="Rectangle_134" data-name="Rectangle 134" width="17.277" height="17.246" fill="#fff"/>
    </clipPath>
  </defs>
  <g id="Group_37" data-name="Group 37" transform="translate(0 0)">
    <rect id="Rectangle_133" data-name="Rectangle 133" width="3.585" height="11.515" transform="translate(0.286 5.731)" fill="#fff"/>
    <g id="Group_36" data-name="Group 36" transform="translate(0 0)">
      <g id="Group_35" data-name="Group 35" clip-path="url(#clip-path)">
        <path id="Path_2983" data-name="Path 2983" d="M2.076,0h0A2.075,2.075,0,1,0,4.15,2.074,2.074,2.074,0,0,0,2.074,0" transform="translate(0 0)" fill="#fff"/>
        <path id="Path_2984" data-name="Path 2984" d="M9.116,8.549h.005v0Z" transform="translate(-3.006 -2.818)" fill="#fff"/>
        <path id="Path_2985" data-name="Path 2985" d="M15.991,8.124A3.764,3.764,0,0,0,12.6,9.983h-.048V8.41H9.123V19.922H12.7v-5.7c0-1.5.287-2.956,2.149-2.956,1.836,0,1.86,1.719,1.86,3.054v5.6h3.577V13.609c0-3.1-.669-5.485-4.293-5.485" transform="translate(-3.008 -2.679)" fill="#fff"/>
      </g>
    </g>
  </g>
</svg>
